<?xml version="1.0" encoding="UTF-8"?>
<mxfile host="app.diagrams.net" agent="Mozilla/5.0 (Windows NT 10.0; Win64; x64) AppleWebKit/537.36 (KHTML, like Gecko) Chrome/132.0.0.0 Safari/537.36 Edg/132.0.0.0" version="26.0.11">
  <diagram name="Page-1" id="HyNddRUmmKug5BdSQhXs">
    <mxGraphModel dx="2977" dy="1614" grid="1" gridSize="10" guides="1" tooltips="1" connect="1" arrows="1" fold="1" page="1" pageScale="1" pageWidth="827" pageHeight="1169" math="0" shadow="0">
      <root>
        <mxCell id="0" />
        <mxCell id="1" parent="0" />
        <mxCell id="elq3urvSMmwE9Xo6kTIK-1" value="Seller" style="rounded=0;whiteSpace=wrap;html=1;dashed=1;" parent="1" vertex="1">
          <mxGeometry x="350" y="260" width="120" height="60" as="geometry" />
        </mxCell>
        <mxCell id="elq3urvSMmwE9Xo6kTIK-2" value="HomeQuest DB" style="rounded=0;whiteSpace=wrap;html=1;dashed=1;" parent="1" vertex="1">
          <mxGeometry x="690" y="260" width="120" height="60" as="geometry" />
        </mxCell>
        <mxCell id="elq3urvSMmwE9Xo6kTIK-3" value="Property Listing" style="rounded=0;whiteSpace=wrap;html=1;dashed=1;" parent="1" vertex="1">
          <mxGeometry x="1241" y="250" width="120" height="60" as="geometry" />
        </mxCell>
        <mxCell id="elq3urvSMmwE9Xo6kTIK-8" value="" style="endArrow=none;dashed=1;html=1;dashPattern=1 3;strokeWidth=2;rounded=0;entryX=0.5;entryY=1;entryDx=0;entryDy=0;exitX=0.5;exitY=0;exitDx=0;exitDy=0;" parent="1" target="elq3urvSMmwE9Xo6kTIK-1" edge="1" source="WelPpqVymWDTnN73f0Vh-9">
          <mxGeometry width="50" height="50" relative="1" as="geometry">
            <mxPoint x="410" y="790" as="sourcePoint" />
            <mxPoint x="410" y="320" as="targetPoint" />
          </mxGeometry>
        </mxCell>
        <mxCell id="elq3urvSMmwE9Xo6kTIK-9" value="" style="endArrow=none;dashed=1;html=1;dashPattern=1 3;strokeWidth=2;rounded=0;entryX=0.5;entryY=1;entryDx=0;entryDy=0;exitX=0.5;exitY=0;exitDx=0;exitDy=0;" parent="1" edge="1" source="WelPpqVymWDTnN73f0Vh-38">
          <mxGeometry width="50" height="50" relative="1" as="geometry">
            <mxPoint x="740" y="1120" as="sourcePoint" />
            <mxPoint x="749.5" y="320" as="targetPoint" />
          </mxGeometry>
        </mxCell>
        <mxCell id="elq3urvSMmwE9Xo6kTIK-10" value="" style="endArrow=none;dashed=1;html=1;dashPattern=1 3;strokeWidth=2;rounded=0;entryX=0.5;entryY=1;entryDx=0;entryDy=0;exitX=0.5;exitY=0;exitDx=0;exitDy=0;" parent="1" edge="1" source="WelPpqVymWDTnN73f0Vh-12">
          <mxGeometry width="50" height="50" relative="1" as="geometry">
            <mxPoint x="1300.44" y="780" as="sourcePoint" />
            <mxPoint x="1300.44" y="310" as="targetPoint" />
          </mxGeometry>
        </mxCell>
        <mxCell id="elq3urvSMmwE9Xo6kTIK-11" value="" style="endArrow=classic;html=1;rounded=0;dashed=1;" parent="1" edge="1">
          <mxGeometry width="50" height="50" relative="1" as="geometry">
            <mxPoint x="418" y="360" as="sourcePoint" />
            <mxPoint x="754" y="360" as="targetPoint" />
          </mxGeometry>
        </mxCell>
        <mxCell id="elq3urvSMmwE9Xo6kTIK-12" value="Register" style="text;html=1;align=center;verticalAlign=middle;resizable=0;points=[];autosize=1;strokeColor=none;fillColor=none;strokeWidth=8;fontSize=16;" parent="1" vertex="1">
          <mxGeometry x="524" y="330" width="80" height="30" as="geometry" />
        </mxCell>
        <mxCell id="elq3urvSMmwE9Xo6kTIK-14" value="" style="endArrow=classic;html=1;rounded=0;dashed=1;" parent="1" edge="1">
          <mxGeometry width="50" height="50" relative="1" as="geometry">
            <mxPoint x="754" y="400" as="sourcePoint" />
            <mxPoint x="414" y="400" as="targetPoint" />
          </mxGeometry>
        </mxCell>
        <mxCell id="elq3urvSMmwE9Xo6kTIK-15" value="Authenticate User" style="text;html=1;align=center;verticalAlign=middle;resizable=0;points=[];autosize=1;strokeColor=none;fillColor=none;fontSize=16;" parent="1" vertex="1">
          <mxGeometry x="489" y="368" width="150" height="30" as="geometry" />
        </mxCell>
        <mxCell id="elq3urvSMmwE9Xo6kTIK-16" value="" style="endArrow=classic;html=1;rounded=0;dashed=1;" parent="1" edge="1">
          <mxGeometry width="50" height="50" relative="1" as="geometry">
            <mxPoint x="414" y="879" as="sourcePoint" />
            <mxPoint x="750" y="879" as="targetPoint" />
          </mxGeometry>
        </mxCell>
        <mxCell id="elq3urvSMmwE9Xo6kTIK-17" value="Add Property Details" style="text;html=1;align=center;verticalAlign=middle;resizable=0;points=[];autosize=1;strokeColor=none;fillColor=none;strokeWidth=8;fontSize=16;" parent="1" vertex="1">
          <mxGeometry x="500" y="849" width="170" height="30" as="geometry" />
        </mxCell>
        <mxCell id="elq3urvSMmwE9Xo6kTIK-18" value="" style="endArrow=classic;html=1;rounded=0;dashed=1;" parent="1" edge="1">
          <mxGeometry width="50" height="50" relative="1" as="geometry">
            <mxPoint x="750" y="902" as="sourcePoint" />
            <mxPoint x="1300" y="902" as="targetPoint" />
          </mxGeometry>
        </mxCell>
        <mxCell id="elq3urvSMmwE9Xo6kTIK-21" value="" style="endArrow=classic;html=1;rounded=0;dashed=1;" parent="1" edge="1">
          <mxGeometry width="50" height="50" relative="1" as="geometry">
            <mxPoint x="414" y="440" as="sourcePoint" />
            <mxPoint x="1040" y="440" as="targetPoint" />
          </mxGeometry>
        </mxCell>
        <mxCell id="elq3urvSMmwE9Xo6kTIK-23" value="Choose Subscription" style="text;html=1;align=center;verticalAlign=middle;resizable=0;points=[];autosize=1;strokeColor=none;fillColor=none;strokeWidth=8;fontSize=16;" parent="1" vertex="1">
          <mxGeometry x="670" y="410" width="170" height="30" as="geometry" />
        </mxCell>
        <mxCell id="elq3urvSMmwE9Xo6kTIK-28" value="Buyer" style="rounded=0;whiteSpace=wrap;html=1;dashed=1;" parent="1" vertex="1">
          <mxGeometry x="2345" y="409" width="120" height="60" as="geometry" />
        </mxCell>
        <mxCell id="elq3urvSMmwE9Xo6kTIK-29" value="HomeQuest DB" style="rounded=0;whiteSpace=wrap;html=1;dashed=1;" parent="1" vertex="1">
          <mxGeometry x="2685" y="409" width="120" height="60" as="geometry" />
        </mxCell>
        <mxCell id="elq3urvSMmwE9Xo6kTIK-30" value="Search" style="rounded=0;whiteSpace=wrap;html=1;dashed=1;" parent="1" vertex="1">
          <mxGeometry x="3015" y="409" width="120" height="60" as="geometry" />
        </mxCell>
        <mxCell id="elq3urvSMmwE9Xo6kTIK-31" value="" style="endArrow=none;dashed=1;html=1;dashPattern=1 3;strokeWidth=2;rounded=0;entryX=0.5;entryY=1;entryDx=0;entryDy=0;exitX=0.5;exitY=0;exitDx=0;exitDy=0;" parent="1" target="elq3urvSMmwE9Xo6kTIK-28" edge="1" source="WelPpqVymWDTnN73f0Vh-13">
          <mxGeometry width="50" height="50" relative="1" as="geometry">
            <mxPoint x="2405" y="939" as="sourcePoint" />
            <mxPoint x="2405" y="469" as="targetPoint" />
          </mxGeometry>
        </mxCell>
        <mxCell id="elq3urvSMmwE9Xo6kTIK-32" value="" style="endArrow=none;dashed=1;html=1;dashPattern=1 3;strokeWidth=2;rounded=0;entryX=0.5;entryY=1;entryDx=0;entryDy=0;exitX=0.5;exitY=0;exitDx=0;exitDy=0;" parent="1" edge="1" source="WelPpqVymWDTnN73f0Vh-14">
          <mxGeometry width="50" height="50" relative="1" as="geometry">
            <mxPoint x="2744.5" y="939" as="sourcePoint" />
            <mxPoint x="2744.5" y="469" as="targetPoint" />
          </mxGeometry>
        </mxCell>
        <mxCell id="elq3urvSMmwE9Xo6kTIK-33" value="" style="endArrow=none;dashed=1;html=1;dashPattern=1 3;strokeWidth=2;rounded=0;entryX=0.5;entryY=1;entryDx=0;entryDy=0;exitX=0.5;exitY=0;exitDx=0;exitDy=0;" parent="1" edge="1" source="WelPpqVymWDTnN73f0Vh-15">
          <mxGeometry width="50" height="50" relative="1" as="geometry">
            <mxPoint x="3074.44" y="939" as="sourcePoint" />
            <mxPoint x="3074.44" y="469" as="targetPoint" />
          </mxGeometry>
        </mxCell>
        <mxCell id="elq3urvSMmwE9Xo6kTIK-34" value="" style="endArrow=classic;html=1;rounded=0;dashed=1;" parent="1" edge="1">
          <mxGeometry width="50" height="50" relative="1" as="geometry">
            <mxPoint x="2413" y="509" as="sourcePoint" />
            <mxPoint x="2749" y="509" as="targetPoint" />
          </mxGeometry>
        </mxCell>
        <mxCell id="elq3urvSMmwE9Xo6kTIK-35" value="Register" style="text;html=1;align=center;verticalAlign=middle;resizable=0;points=[];autosize=1;strokeColor=none;fillColor=none;strokeWidth=8;fontSize=16;" parent="1" vertex="1">
          <mxGeometry x="2519" y="479" width="80" height="30" as="geometry" />
        </mxCell>
        <mxCell id="elq3urvSMmwE9Xo6kTIK-36" value="" style="endArrow=classic;html=1;rounded=0;dashed=1;" parent="1" edge="1">
          <mxGeometry width="50" height="50" relative="1" as="geometry">
            <mxPoint x="2749" y="549" as="sourcePoint" />
            <mxPoint x="2409" y="549" as="targetPoint" />
          </mxGeometry>
        </mxCell>
        <mxCell id="elq3urvSMmwE9Xo6kTIK-37" value="Authenticate User" style="text;html=1;align=center;verticalAlign=middle;resizable=0;points=[];autosize=1;strokeColor=none;fillColor=none;fontSize=16;" parent="1" vertex="1">
          <mxGeometry x="2484" y="517" width="150" height="30" as="geometry" />
        </mxCell>
        <mxCell id="elq3urvSMmwE9Xo6kTIK-38" value="" style="endArrow=classic;html=1;rounded=0;dashed=1;" parent="1" edge="1">
          <mxGeometry width="50" height="50" relative="1" as="geometry">
            <mxPoint x="2404" y="879" as="sourcePoint" />
            <mxPoint x="2740" y="879" as="targetPoint" />
          </mxGeometry>
        </mxCell>
        <mxCell id="elq3urvSMmwE9Xo6kTIK-39" value="View Property" style="text;html=1;align=center;verticalAlign=middle;resizable=0;points=[];autosize=1;strokeColor=none;fillColor=none;strokeWidth=8;fontSize=16;" parent="1" vertex="1">
          <mxGeometry x="2515" y="849" width="120" height="30" as="geometry" />
        </mxCell>
        <mxCell id="elq3urvSMmwE9Xo6kTIK-44" value="" style="endArrow=classic;html=1;rounded=0;dashed=1;" parent="1" edge="1">
          <mxGeometry width="50" height="50" relative="1" as="geometry">
            <mxPoint x="2403" y="1039" as="sourcePoint" />
            <mxPoint x="2739" y="1039" as="targetPoint" />
          </mxGeometry>
        </mxCell>
        <mxCell id="elq3urvSMmwE9Xo6kTIK-45" value="Rate Seller" style="text;html=1;align=center;verticalAlign=middle;resizable=0;points=[];autosize=1;strokeColor=none;fillColor=none;strokeWidth=8;fontSize=16;" parent="1" vertex="1">
          <mxGeometry x="2524" y="1009" width="100" height="30" as="geometry" />
        </mxCell>
        <mxCell id="elq3urvSMmwE9Xo6kTIK-49" value="View Appointment Details" style="text;html=1;align=center;verticalAlign=middle;resizable=0;points=[];autosize=1;strokeColor=none;fillColor=none;strokeWidth=8;fontSize=16;" parent="1" vertex="1">
          <mxGeometry x="2479" y="901" width="200" height="30" as="geometry" />
        </mxCell>
        <mxCell id="elq3urvSMmwE9Xo6kTIK-52" value="" style="endArrow=classic;html=1;rounded=0;dashed=1;" parent="1" edge="1">
          <mxGeometry width="50" height="50" relative="1" as="geometry">
            <mxPoint x="2407" y="609" as="sourcePoint" />
            <mxPoint x="3070" y="609" as="targetPoint" />
          </mxGeometry>
        </mxCell>
        <mxCell id="elq3urvSMmwE9Xo6kTIK-53" value="Search for property" style="text;html=1;align=center;verticalAlign=middle;resizable=0;points=[];autosize=1;strokeColor=none;fillColor=none;strokeWidth=8;fontSize=16;" parent="1" vertex="1">
          <mxGeometry x="2655" y="579" width="160" height="30" as="geometry" />
        </mxCell>
        <mxCell id="elq3urvSMmwE9Xo6kTIK-56" value="" style="endArrow=classic;html=1;rounded=0;dashed=1;" parent="1" edge="1">
          <mxGeometry width="50" height="50" relative="1" as="geometry">
            <mxPoint x="3070" y="847.8900000000001" as="sourcePoint" />
            <mxPoint x="3400" y="848" as="targetPoint" />
          </mxGeometry>
        </mxCell>
        <mxCell id="elq3urvSMmwE9Xo6kTIK-57" value="Filter Properties" style="text;html=1;align=center;verticalAlign=middle;resizable=0;points=[];autosize=1;strokeColor=none;fillColor=none;strokeWidth=8;fontSize=16;" parent="1" vertex="1">
          <mxGeometry x="3144" y="817.8900000000001" width="140" height="30" as="geometry" />
        </mxCell>
        <mxCell id="elq3urvSMmwE9Xo6kTIK-60" value="" style="endArrow=classic;html=1;rounded=0;dashed=1;" parent="1" edge="1">
          <mxGeometry width="50" height="50" relative="1" as="geometry">
            <mxPoint x="3403" y="640" as="sourcePoint" />
            <mxPoint x="3074" y="640" as="targetPoint" />
          </mxGeometry>
        </mxCell>
        <mxCell id="elq3urvSMmwE9Xo6kTIK-61" value="Display Rent Results" style="text;html=1;align=center;verticalAlign=middle;resizable=0;points=[];autosize=1;strokeColor=none;fillColor=none;fontSize=16;" parent="1" vertex="1">
          <mxGeometry x="3154" y="610" width="170" height="30" as="geometry" />
        </mxCell>
        <mxCell id="elq3urvSMmwE9Xo6kTIK-62" value="Appointment" style="rounded=0;whiteSpace=wrap;html=1;dashed=1;" parent="1" vertex="1">
          <mxGeometry x="3684" y="409" width="120" height="60" as="geometry" />
        </mxCell>
        <mxCell id="elq3urvSMmwE9Xo6kTIK-63" value="" style="endArrow=none;dashed=1;html=1;dashPattern=1 3;strokeWidth=2;rounded=0;entryX=0.5;entryY=1;entryDx=0;entryDy=0;exitX=0.5;exitY=0;exitDx=0;exitDy=0;" parent="1" edge="1" source="WelPpqVymWDTnN73f0Vh-16">
          <mxGeometry width="50" height="50" relative="1" as="geometry">
            <mxPoint x="3743.44" y="939" as="sourcePoint" />
            <mxPoint x="3743.44" y="469" as="targetPoint" />
          </mxGeometry>
        </mxCell>
        <mxCell id="elq3urvSMmwE9Xo6kTIK-65" value="" style="endArrow=classic;html=1;rounded=0;dashed=1;" parent="1" edge="1">
          <mxGeometry width="50" height="50" relative="1" as="geometry">
            <mxPoint x="2741" y="931" as="sourcePoint" />
            <mxPoint x="2401" y="931" as="targetPoint" />
          </mxGeometry>
        </mxCell>
        <mxCell id="elq3urvSMmwE9Xo6kTIK-66" value="" style="endArrow=classic;html=1;rounded=0;dashed=1;" parent="1" edge="1">
          <mxGeometry width="50" height="50" relative="1" as="geometry">
            <mxPoint x="2403" y="949" as="sourcePoint" />
            <mxPoint x="3740" y="949" as="targetPoint" />
          </mxGeometry>
        </mxCell>
        <mxCell id="elq3urvSMmwE9Xo6kTIK-67" value="Book Appointment" style="text;html=1;align=center;verticalAlign=middle;resizable=0;points=[];autosize=1;strokeColor=none;fillColor=none;fontSize=16;" parent="1" vertex="1">
          <mxGeometry x="2856" y="919" width="150" height="30" as="geometry" />
        </mxCell>
        <mxCell id="elq3urvSMmwE9Xo6kTIK-68" value="Subscription" style="rounded=0;whiteSpace=wrap;html=1;dashed=1;" parent="1" vertex="1">
          <mxGeometry x="980" y="260" width="120" height="60" as="geometry" />
        </mxCell>
        <mxCell id="elq3urvSMmwE9Xo6kTIK-69" value="" style="endArrow=none;dashed=1;html=1;dashPattern=1 3;strokeWidth=2;rounded=0;entryX=0.5;entryY=1;entryDx=0;entryDy=0;" parent="1" source="elq3urvSMmwE9Xo6kTIK-19" edge="1">
          <mxGeometry width="50" height="50" relative="1" as="geometry">
            <mxPoint x="1039.44" y="790" as="sourcePoint" />
            <mxPoint x="1039.44" y="320" as="targetPoint" />
          </mxGeometry>
        </mxCell>
        <mxCell id="elq3urvSMmwE9Xo6kTIK-70" value="" style="endArrow=classic;html=1;rounded=0;dashed=1;" parent="1" edge="1">
          <mxGeometry width="50" height="50" relative="1" as="geometry">
            <mxPoint x="1040" y="846.56" as="sourcePoint" />
            <mxPoint x="414" y="846.56" as="targetPoint" />
          </mxGeometry>
        </mxCell>
        <mxCell id="elq3urvSMmwE9Xo6kTIK-71" value="Seller Subscribed" style="text;html=1;align=center;verticalAlign=middle;resizable=0;points=[];autosize=1;strokeColor=none;fillColor=none;strokeWidth=8;fontSize=16;" parent="1" vertex="1">
          <mxGeometry x="680" y="816.56" width="150" height="30" as="geometry" />
        </mxCell>
        <mxCell id="elq3urvSMmwE9Xo6kTIK-73" value="" style="endArrow=none;dashed=1;html=1;dashPattern=1 3;strokeWidth=2;rounded=0;entryX=0.5;entryY=1;entryDx=0;entryDy=0;" parent="1" target="elq3urvSMmwE9Xo6kTIK-19" edge="1">
          <mxGeometry width="50" height="50" relative="1" as="geometry">
            <mxPoint x="1040" y="904" as="sourcePoint" />
            <mxPoint x="1039.44" y="639" as="targetPoint" />
          </mxGeometry>
        </mxCell>
        <mxCell id="elq3urvSMmwE9Xo6kTIK-19" value="Validate Property" style="text;html=1;align=center;verticalAlign=middle;resizable=0;points=[];autosize=1;strokeColor=none;fillColor=none;strokeWidth=8;fontSize=16;" parent="1" vertex="1">
          <mxGeometry x="965" y="874" width="150" height="30" as="geometry" />
        </mxCell>
        <mxCell id="elq3urvSMmwE9Xo6kTIK-75" value="" style="endArrow=none;dashed=1;html=1;dashPattern=1 3;strokeWidth=2;rounded=0;entryX=0.5;entryY=1;entryDx=0;entryDy=0;exitX=0.5;exitY=0;exitDx=0;exitDy=0;" parent="1" edge="1" source="WelPpqVymWDTnN73f0Vh-11">
          <mxGeometry width="50" height="50" relative="1" as="geometry">
            <mxPoint x="1039.44" y="1108.9999999999998" as="sourcePoint" />
            <mxPoint x="1040" y="934" as="targetPoint" />
          </mxGeometry>
        </mxCell>
        <mxCell id="WelPpqVymWDTnN73f0Vh-1" value="" style="endArrow=classic;html=1;rounded=0;dashed=1;" edge="1" parent="1">
          <mxGeometry width="50" height="50" relative="1" as="geometry">
            <mxPoint x="2400" y="999" as="sourcePoint" />
            <mxPoint x="2736" y="999" as="targetPoint" />
          </mxGeometry>
        </mxCell>
        <mxCell id="WelPpqVymWDTnN73f0Vh-3" value="Upload Documents" style="text;html=1;align=center;verticalAlign=middle;resizable=0;points=[];autosize=1;strokeColor=none;fillColor=none;strokeWidth=8;fontSize=16;" vertex="1" parent="1">
          <mxGeometry x="2495" y="969" width="160" height="30" as="geometry" />
        </mxCell>
        <mxCell id="WelPpqVymWDTnN73f0Vh-4" value="" style="endArrow=classic;html=1;rounded=0;dashed=1;exitX=0;exitY=0.627;exitDx=0;exitDy=0;exitPerimeter=0;" edge="1" parent="1" source="WelPpqVymWDTnN73f0Vh-41">
          <mxGeometry width="50" height="50" relative="1" as="geometry">
            <mxPoint x="417" y="1007.57" as="sourcePoint" />
            <mxPoint x="1300" y="1007.57" as="targetPoint" />
          </mxGeometry>
        </mxCell>
        <mxCell id="WelPpqVymWDTnN73f0Vh-5" value="List Property" style="text;html=1;align=center;verticalAlign=middle;resizable=0;points=[];autosize=1;strokeColor=none;fillColor=none;strokeWidth=8;fontSize=16;" vertex="1" parent="1">
          <mxGeometry x="770" y="977.57" width="110" height="30" as="geometry" />
        </mxCell>
        <mxCell id="WelPpqVymWDTnN73f0Vh-6" value="" style="endArrow=classic;html=1;rounded=0;dashed=1;" edge="1" parent="1">
          <mxGeometry width="50" height="50" relative="1" as="geometry">
            <mxPoint x="1300" y="1146" as="sourcePoint" />
            <mxPoint x="750" y="1146" as="targetPoint" />
          </mxGeometry>
        </mxCell>
        <mxCell id="WelPpqVymWDTnN73f0Vh-8" value="Property Saved" style="text;html=1;align=center;verticalAlign=middle;resizable=0;points=[];autosize=1;strokeColor=none;fillColor=none;strokeWidth=8;fontSize=16;" vertex="1" parent="1">
          <mxGeometry x="975" y="1116" width="130" height="30" as="geometry" />
        </mxCell>
        <mxCell id="WelPpqVymWDTnN73f0Vh-9" value="Seller" style="rounded=0;whiteSpace=wrap;html=1;dashed=1;" vertex="1" parent="1">
          <mxGeometry x="350" y="1255.9999999999998" width="120" height="64" as="geometry" />
        </mxCell>
        <mxCell id="WelPpqVymWDTnN73f0Vh-10" value="HomeQuest DB" style="rounded=0;whiteSpace=wrap;html=1;dashed=1;" vertex="1" parent="1">
          <mxGeometry x="690" y="1255.9999999999998" width="120" height="64" as="geometry" />
        </mxCell>
        <mxCell id="WelPpqVymWDTnN73f0Vh-11" value="Subscription" style="rounded=0;whiteSpace=wrap;html=1;dashed=1;" vertex="1" parent="1">
          <mxGeometry x="980" y="1255.9999999999998" width="120" height="64" as="geometry" />
        </mxCell>
        <mxCell id="WelPpqVymWDTnN73f0Vh-12" value="Property Listing" style="rounded=0;whiteSpace=wrap;html=1;dashed=1;" vertex="1" parent="1">
          <mxGeometry x="1241" y="1245.9999999999998" width="120" height="64" as="geometry" />
        </mxCell>
        <mxCell id="WelPpqVymWDTnN73f0Vh-13" value="Buyer" style="rounded=0;whiteSpace=wrap;html=1;dashed=1;" vertex="1" parent="1">
          <mxGeometry x="2340" y="1109" width="120" height="60" as="geometry" />
        </mxCell>
        <mxCell id="WelPpqVymWDTnN73f0Vh-14" value="HomeQuest DB" style="rounded=0;whiteSpace=wrap;html=1;dashed=1;" vertex="1" parent="1">
          <mxGeometry x="2681" y="1109" width="120" height="60" as="geometry" />
        </mxCell>
        <mxCell id="WelPpqVymWDTnN73f0Vh-15" value="Search" style="rounded=0;whiteSpace=wrap;html=1;dashed=1;" vertex="1" parent="1">
          <mxGeometry x="3011" y="1109" width="120" height="60" as="geometry" />
        </mxCell>
        <mxCell id="WelPpqVymWDTnN73f0Vh-16" value="Appointment" style="rounded=0;whiteSpace=wrap;html=1;dashed=1;" vertex="1" parent="1">
          <mxGeometry x="3680" y="1109" width="120" height="60" as="geometry" />
        </mxCell>
        <mxCell id="WelPpqVymWDTnN73f0Vh-17" value="alternative" style="shape=umlFrame;whiteSpace=wrap;html=1;pointerEvents=0;" vertex="1" parent="1">
          <mxGeometry x="3070" y="580" width="334" height="110" as="geometry" />
        </mxCell>
        <mxCell id="WelPpqVymWDTnN73f0Vh-20" value="[search for rent]" style="text;html=1;align=center;verticalAlign=middle;resizable=0;points=[];autosize=1;strokeColor=none;fillColor=none;" vertex="1" parent="1">
          <mxGeometry x="3120" y="579" width="110" height="30" as="geometry" />
        </mxCell>
        <mxCell id="WelPpqVymWDTnN73f0Vh-21" value="" style="endArrow=classic;html=1;rounded=0;dashed=1;" edge="1" parent="1">
          <mxGeometry width="50" height="50" relative="1" as="geometry">
            <mxPoint x="3403" y="751" as="sourcePoint" />
            <mxPoint x="3074" y="751" as="targetPoint" />
          </mxGeometry>
        </mxCell>
        <mxCell id="WelPpqVymWDTnN73f0Vh-22" value="Display Buy Results" style="text;html=1;align=center;verticalAlign=middle;resizable=0;points=[];autosize=1;strokeColor=none;fillColor=none;fontSize=16;" vertex="1" parent="1">
          <mxGeometry x="3154" y="721" width="170" height="30" as="geometry" />
        </mxCell>
        <mxCell id="WelPpqVymWDTnN73f0Vh-23" value="alternative" style="shape=umlFrame;whiteSpace=wrap;html=1;pointerEvents=0;" vertex="1" parent="1">
          <mxGeometry x="3070" y="691" width="334" height="110" as="geometry" />
        </mxCell>
        <mxCell id="WelPpqVymWDTnN73f0Vh-24" value="[search for buy]" style="text;html=1;align=center;verticalAlign=middle;resizable=0;points=[];autosize=1;strokeColor=none;fillColor=none;" vertex="1" parent="1">
          <mxGeometry x="3120" y="690" width="110" height="30" as="geometry" />
        </mxCell>
        <mxCell id="WelPpqVymWDTnN73f0Vh-25" value="Property Listing" style="rounded=0;whiteSpace=wrap;html=1;dashed=1;" vertex="1" parent="1">
          <mxGeometry x="3344" y="409" width="120" height="60" as="geometry" />
        </mxCell>
        <mxCell id="WelPpqVymWDTnN73f0Vh-26" value="" style="endArrow=none;dashed=1;html=1;dashPattern=1 3;strokeWidth=2;rounded=0;entryX=0.5;entryY=1;entryDx=0;entryDy=0;exitX=0.5;exitY=0;exitDx=0;exitDy=0;" edge="1" parent="1" source="WelPpqVymWDTnN73f0Vh-27">
          <mxGeometry width="50" height="50" relative="1" as="geometry">
            <mxPoint x="3403.44" y="939" as="sourcePoint" />
            <mxPoint x="3403.44" y="469" as="targetPoint" />
          </mxGeometry>
        </mxCell>
        <mxCell id="WelPpqVymWDTnN73f0Vh-27" value="Property Listing" style="rounded=0;whiteSpace=wrap;html=1;dashed=1;" vertex="1" parent="1">
          <mxGeometry x="3340" y="1109" width="120" height="60" as="geometry" />
        </mxCell>
        <mxCell id="WelPpqVymWDTnN73f0Vh-28" value="" style="endArrow=classic;html=1;rounded=0;dashed=1;" edge="1" parent="1">
          <mxGeometry width="50" height="50" relative="1" as="geometry">
            <mxPoint x="3740" y="911" as="sourcePoint" />
            <mxPoint x="2740" y="911" as="targetPoint" />
          </mxGeometry>
        </mxCell>
        <mxCell id="WelPpqVymWDTnN73f0Vh-29" value="Give Appointment Details" style="text;html=1;align=center;verticalAlign=middle;resizable=0;points=[];autosize=1;strokeColor=none;fillColor=none;fontSize=16;" vertex="1" parent="1">
          <mxGeometry x="3149" y="879" width="200" height="30" as="geometry" />
        </mxCell>
        <mxCell id="WelPpqVymWDTnN73f0Vh-30" value="alternative" style="shape=umlFrame;whiteSpace=wrap;html=1;pointerEvents=0;" vertex="1" parent="1">
          <mxGeometry x="410" y="460" width="630" height="110" as="geometry" />
        </mxCell>
        <mxCell id="WelPpqVymWDTnN73f0Vh-31" value="[free subscription]" style="text;html=1;align=center;verticalAlign=middle;resizable=0;points=[];autosize=1;strokeColor=none;fillColor=none;" vertex="1" parent="1">
          <mxGeometry x="470" y="460" width="120" height="30" as="geometry" />
        </mxCell>
        <mxCell id="WelPpqVymWDTnN73f0Vh-32" value="alternative" style="shape=umlFrame;whiteSpace=wrap;html=1;pointerEvents=0;" vertex="1" parent="1">
          <mxGeometry x="410" y="590" width="630" height="110" as="geometry" />
        </mxCell>
        <mxCell id="WelPpqVymWDTnN73f0Vh-33" value="[gold subscription]" style="text;html=1;align=center;verticalAlign=middle;resizable=0;points=[];autosize=1;strokeColor=none;fillColor=none;" vertex="1" parent="1">
          <mxGeometry x="474" y="590" width="120" height="30" as="geometry" />
        </mxCell>
        <mxCell id="WelPpqVymWDTnN73f0Vh-34" value="" style="endArrow=classic;html=1;rounded=0;dashed=1;" edge="1" parent="1">
          <mxGeometry width="50" height="50" relative="1" as="geometry">
            <mxPoint x="412" y="509" as="sourcePoint" />
            <mxPoint x="1038" y="509" as="targetPoint" />
          </mxGeometry>
        </mxCell>
        <mxCell id="WelPpqVymWDTnN73f0Vh-35" value="" style="endArrow=classic;html=1;rounded=0;dashed=1;" edge="1" parent="1">
          <mxGeometry width="50" height="50" relative="1" as="geometry">
            <mxPoint x="410" y="660" as="sourcePoint" />
            <mxPoint x="1036" y="660" as="targetPoint" />
          </mxGeometry>
        </mxCell>
        <mxCell id="WelPpqVymWDTnN73f0Vh-39" value="" style="endArrow=none;dashed=1;html=1;dashPattern=1 3;strokeWidth=2;rounded=0;entryX=0.5;entryY=1;entryDx=0;entryDy=0;exitX=0.5;exitY=0;exitDx=0;exitDy=0;" edge="1" parent="1" source="WelPpqVymWDTnN73f0Vh-10" target="WelPpqVymWDTnN73f0Vh-38">
          <mxGeometry width="50" height="50" relative="1" as="geometry">
            <mxPoint x="750" y="1109" as="sourcePoint" />
            <mxPoint x="749.5" y="320" as="targetPoint" />
          </mxGeometry>
        </mxCell>
        <mxCell id="WelPpqVymWDTnN73f0Vh-38" value="Type 2" style="text;html=1;align=center;verticalAlign=middle;resizable=0;points=[];autosize=1;strokeColor=none;fillColor=none;strokeWidth=8;fontSize=16;" vertex="1" parent="1">
          <mxGeometry x="720" y="630" width="70" height="30" as="geometry" />
        </mxCell>
        <mxCell id="WelPpqVymWDTnN73f0Vh-40" value="Type 1" style="text;html=1;align=center;verticalAlign=middle;resizable=0;points=[];autosize=1;strokeColor=none;fillColor=none;strokeWidth=8;fontSize=16;" vertex="1" parent="1">
          <mxGeometry x="720" y="479" width="70" height="30" as="geometry" />
        </mxCell>
        <mxCell id="WelPpqVymWDTnN73f0Vh-41" value="alternative" style="shape=umlFrame;whiteSpace=wrap;html=1;pointerEvents=0;" vertex="1" parent="1">
          <mxGeometry x="410" y="969" width="890" height="61" as="geometry" />
        </mxCell>
        <mxCell id="WelPpqVymWDTnN73f0Vh-42" value="alternative" style="shape=umlFrame;whiteSpace=wrap;html=1;pointerEvents=0;" vertex="1" parent="1">
          <mxGeometry x="410" y="1039" width="890" height="61" as="geometry" />
        </mxCell>
        <mxCell id="WelPpqVymWDTnN73f0Vh-43" value="[residential]" style="text;html=1;align=center;verticalAlign=middle;resizable=0;points=[];autosize=1;strokeColor=none;fillColor=none;" vertex="1" parent="1">
          <mxGeometry x="470" y="969" width="80" height="30" as="geometry" />
        </mxCell>
        <mxCell id="WelPpqVymWDTnN73f0Vh-44" value="[commercial]" style="text;html=1;align=center;verticalAlign=middle;resizable=0;points=[];autosize=1;strokeColor=none;fillColor=none;" vertex="1" parent="1">
          <mxGeometry x="465" y="1039" width="90" height="30" as="geometry" />
        </mxCell>
        <mxCell id="WelPpqVymWDTnN73f0Vh-45" value="" style="endArrow=classic;html=1;rounded=0;dashed=1;entryX=1.001;entryY=0.672;entryDx=0;entryDy=0;entryPerimeter=0;" edge="1" parent="1" target="WelPpqVymWDTnN73f0Vh-42">
          <mxGeometry width="50" height="50" relative="1" as="geometry">
            <mxPoint x="410" y="1080" as="sourcePoint" />
            <mxPoint x="1293" y="1080" as="targetPoint" />
          </mxGeometry>
        </mxCell>
        <mxCell id="WelPpqVymWDTnN73f0Vh-46" value="List Property" style="text;html=1;align=center;verticalAlign=middle;resizable=0;points=[];autosize=1;strokeColor=none;fillColor=none;strokeWidth=8;fontSize=16;" vertex="1" parent="1">
          <mxGeometry x="763" y="1050" width="110" height="30" as="geometry" />
        </mxCell>
      </root>
    </mxGraphModel>
  </diagram>
</mxfile>
